{
  "accessors": [
    {
      "bufferView": 2,
      "componentType": 5126,
      "count": 1527,
      "max": [
        0.72555804252624512,
        0.17296645045280457,
        1.5337728261947632
      ],
      "min": [
        -0.7255558967590332,
        -0.38214826583862305,
        0.0011293594725430012
      ],
      "type": "VEC3"
    },
    {
      "bufferView": 2,
      "byteOffset": 18324,
      "componentType": 5126,
      "count": 1527,
      "max": [
        0.99880170822143555,
        0.99431425333023071,
        0.99998873472213745
      ],
      "min": [
        -0.99879992008209229,
        -0.99998873472213745,
        -1.0000038146972656
      ],
      "type": "VEC3"
    },
    {
      "bufferView": 3,
      "componentType": 5126,
      "count": 1527,
      "max": [
        1,
        0.9999929666519165,
        0.99584722518920898,
        1
      ],
      "min": [
        -0.99999934434890747,
        -0.99858182668685913,
        -0.98961418867111206,
        1
      ],
      "type": "VEC4"
    },
    {
      "bufferView": 1,
      "componentType": 5126,
      "count": 1527,
      "max": [
        0.9901999831199646,
        0.98763000965118408
      ],
      "min": [
        0.0093299997970461845,
        0.0018100000452250242
      ],
      "type": "VEC2"
    },
    {
      "bufferView": 0,
      "componentType": 5125,
      "count": 2892,
      "max": [
        1526
      ],
      "min": [
        0
      ],
      "type": "SCALAR"
    },
    {
      "bufferView": 4,
      "componentType": 5126,
      "count": 1,
      "max": [
        1,
        0,
        0,
        0,
        0,
        1,
        0,
        0,
        0,
        0,
        1,
        0,
        0,
        0,
        0,
        1
      ],
      "min": [
        1,
        0,
        0,
        0,
        0,
        1,
        0,
        0,
        0,
        0,
        1,
        0,
        0,
        0,
        0,
        1
      ],
      "type": "MAT4"
    }
  ],
  "asset": {
    "extras": {
      "author": "Inuciian (https://sketchfab.com/Inuciian)",
      "license": "CC-BY-4.0 (http://creativecommons.org/licenses/by/4.0/)",
      "source": "https://sketchfab.com/models/8cacbd85a5b84f59a8c9000d7a6dcca2",
      "title": "Monk Character"
    },
    "generator": "Sketchfab-3.18.5",
    "version": "2.0"
  },
  "bufferViews": [
    {
      "buffer": 0,
      "byteLength": 11568,
      "byteOffset": 0,
      "name": "floatBufferViews",
      "target": 34963
    },
    {
      "buffer": 0,
      "byteLength": 12216,
      "byteOffset": 11568,
      "byteStride": 8,
      "name": "floatBufferViews",
      "target": 34962
    },
    {
      "buffer": 0,
      "byteLength": 36648,
      "byteOffset": 23784,
      "byteStride": 12,
      "name": "floatBufferViews",
      "target": 34962
    },
    {
      "buffer": 0,
      "byteLength": 24432,
      "byteOffset": 60432,
      "byteStride": 16,
      "name": "floatBufferViews",
      "target": 34962
    },
    {
      "buffer": 0,
      "byteLength": 64,
      "byteOffset": 84864,
      "byteStride": 64,
      "name": "floatBufferViews"
    }
  ],
  "buffers": [
    {
      "byteLength": 84928,
      "uri": "scene.bin"
    }
  ],
  "images": [
    {
      "uri": "textures/monk_material_baseColor.png"
    }
  ],
  "materials": [
    {
      "doubleSided": true,
      "emissiveFactor": [
        0,
        0,
        0
      ],
      "name": "monk_material",
      "pbrMetallicRoughness": {
        "baseColorFactor": [
          1,
          1,
          1,
          1
        ],
        "baseColorTexture": {
          "index": 0,
          "texCoord": 0
        },
        "metallicFactor": 0,
        "roughnessFactor": 1
      }
    }
  ],
  "meshes": [
    {
      "name": "monk_0",
      "primitives": [
        {
          "attributes": {
            "NORMAL": 1,
            "POSITION": 0,
            "TANGENT": 2,
            "TEXCOORD_0": 3
          },
          "indices": 4,
          "material": 0,
          "mode": 4
        }
      ]
    }
  ],
  "nodes": [
    {
      "children": [
        1
      ],
      "name": "RootNode (gltf orientation matrix)",
      "rotation": [
        -0.70710678118654746,
        -0,
        -0,
        0.70710678118654757
      ]
    },
    {
      "children": [
        2
      ],
      "name": "RootNode (model correction matrix)"
    },
    {
      "children": [
        3
      ],
      "name": "Root"
    },
    {
      "children": [
        4,
        5
      ],
      "matrix": [
        1,
        0,
        0,
        0,
        0,
        1,
        0,
        0,
        0,
        0,
        1,
        0,
        0,
        0.060090000000000011,
        0.72178000000000009,
        1
      ],
      "name": "Armature_Monk"
    },
    {
      "name": "Armature_Monk_rootJoint"
    },
    {
      "children": [
        6
      ],
      "matrix": [
        -1,
        -0,
        0,
        0,
        0,
        -1,
        0,
        0,
        0,
        0,
        1,
        0,
        0,
        -0.12086000000000001,
        -0.72178000000000009,
        1
      ],
      "name": "monk"
    },
    {
      "mesh": 0,
      "name": "monk_0"
    }
  ],
  "samplers": [
    {
      "magFilter": 9729,
      "minFilter": 9987,
      "wrapS": 10497,
      "wrapT": 10497
    }
  ],
  "scene": 0,
  "scenes": [
    {
      "name": "OSG_Scene",
      "nodes": [
        0
      ]
    }
  ],
  "skins": [
    {
      "inverseBindMatrices": 5,
      "joints": [
        4
      ],
      "skeleton": 4
    }
  ],
  "textures": [
    {
      "sampler": 0,
      "source": 0
    }
  ]
}

