{
  "accessors": [
    {
      "bufferView": 1,
      "componentType": 5126,
      "count": 152,
      "max": [
        0.080084219574928284,
        6.4489960670471191,
        1.2957435846328735
      ],
      "min": [
        -0.08008420467376709,
        4.65826416015625,
        0.35297232866287231
      ],
      "type": "VEC3"
    },
    {
      "bufferView": 1,
      "byteOffset": 1824,
      "componentType": 5126,
      "count": 152,
      "max": [
        1,
        0.97423523664474487,
        0.99720174074172974
      ],
      "min": [
        -1,
        -1,
        -0.99720180034637451
      ],
      "type": "VEC3"
    },
    {
      "bufferView": 2,
      "componentType": 5126,
      "count": 152,
      "max": [
        5.2441713194184558e-08,
        0.73721557855606079,
        1,
        1
      ],
      "min": [
        -5.6356007860358659e-08,
        -0.99170225858688354,
        -1,
        -1
      ],
      "type": "VEC4"
    },
    {
      "bufferView": 0,
      "componentType": 5125,
      "count": 228,
      "max": [
        151
      ],
      "min": [
        0
      ],
      "type": "SCALAR"
    },
    {
      "bufferView": 1,
      "byteOffset": 3648,
      "componentType": 5126,
      "count": 152,
      "max": [
        0.080084145069122314,
        6.4863243103027344,
        -0.35294890403747559
      ],
      "min": [
        -0.08008420467376709,
        4.6180486679077148,
        -1.2909255027770996
      ],
      "type": "VEC3"
    },
    {
      "bufferView": 1,
      "byteOffset": 5472,
      "componentType": 5126,
      "count": 152,
      "max": [
        1,
        0.96168774366378784,
        0.99720120429992676
      ],
      "min": [
        -1,
        -1,
        -0.99720132350921631
      ],
      "type": "VEC3"
    },
    {
      "bufferView": 2,
      "byteOffset": 2432,
      "componentType": 5126,
      "count": 152,
      "max": [
        6.775304228767709e-08,
        0.73716723918914795,
        1,
        1
      ],
      "min": [
        -8.881512769676192e-08,
        -0.98348796367645264,
        -1,
        -1
      ],
      "type": "VEC4"
    },
    {
      "bufferView": 0,
      "byteOffset": 912,
      "componentType": 5125,
      "count": 228,
      "max": [
        151
      ],
      "min": [
        0
      ],
      "type": "SCALAR"
    },
    {
      "bufferView": 1,
      "byteOffset": 7296,
      "componentType": 5126,
      "count": 318,
      "max": [
        0.97786664962768555,
        3.653785228729248,
        0.93000656366348267
      ],
      "min": [
        -0.9778667688369751,
        2.6875450611114502,
        -0.93000668287277222
      ],
      "type": "VEC3"
    },
    {
      "bufferView": 1,
      "byteOffset": 11112,
      "componentType": 5126,
      "count": 318,
      "max": [
        0.95105701684951782,
        1,
        1
      ],
      "min": [
        -0.95105701684951782,
        -1,
        -1
      ],
      "type": "VEC3"
    },
    {
      "bufferView": 2,
      "byteOffset": 4864,
      "componentType": 5126,
      "count": 318,
      "max": [
        0,
        0,
        0,
        1
      ],
      "min": [
        0,
        0,
        0,
        1
      ],
      "type": "VEC4"
    },
    {
      "bufferView": 0,
      "byteOffset": 1824,
      "componentType": 5125,
      "count": 480,
      "max": [
        317
      ],
      "min": [
        0
      ],
      "type": "SCALAR"
    },
    {
      "bufferView": 1,
      "byteOffset": 14928,
      "componentType": 5126,
      "count": 402,
      "max": [
        0.80110460519790649,
        3.6177799701690674,
        0.74479550123214722
      ],
      "min": [
        -0.74479550123214722,
        0.3079230785369873,
        -0.74479538202285767
      ],
      "type": "VEC3"
    },
    {
      "bufferView": 1,
      "byteOffset": 19752,
      "componentType": 5126,
      "count": 402,
      "max": [
        0.94531196355819702,
        1,
        1
      ],
      "min": [
        -0.93253278732299805,
        -1,
        -1
      ],
      "type": "VEC3"
    },
    {
      "bufferView": 2,
      "byteOffset": 9952,
      "componentType": 5126,
      "count": 402,
      "max": [
        0.32616785168647766,
        0,
        0.94531190395355225,
        1
      ],
      "min": [
        -0.32616794109344482,
        -1,
        -0.98434191942214966,
        -1
      ],
      "type": "VEC4"
    },
    {
      "bufferView": 0,
      "byteOffset": 3744,
      "componentType": 5125,
      "count": 624,
      "max": [
        401
      ],
      "min": [
        0
      ],
      "type": "SCALAR"
    }
  ],
  "asset": {
    "extras": {
      "author": "Synty Studios (https://sketchfab.com/syntystudios)",
      "license": "CC-BY-4.0 (http://creativecommons.org/licenses/by/4.0/)",
      "source": "https://sketchfab.com/models/afd10a0435184da58cb5f391c0499b14",
      "title": "A cool little cup just for fun :)"
    },
    "generator": "Sketchfab-3.18.7",
    "version": "2.0"
  },
  "bufferViews": [
    {
      "buffer": 0,
      "byteLength": 6240,
      "byteOffset": 0,
      "name": "floatBufferViews",
      "target": 34963
    },
    {
      "buffer": 0,
      "byteLength": 24576,
      "byteOffset": 6240,
      "byteStride": 12,
      "name": "floatBufferViews",
      "target": 34962
    },
    {
      "buffer": 0,
      "byteLength": 16384,
      "byteOffset": 30816,
      "byteStride": 16,
      "name": "floatBufferViews",
      "target": 34962
    }
  ],
  "buffers": [
    {
      "byteLength": 47200,
      "uri": "scene.bin"
    }
  ],
  "materials": [
    {
      "doubleSided": true,
      "emissiveFactor": [
        0,
        0,
        0
      ],
      "name": "metal",
      "pbrMetallicRoughness": {
        "baseColorFactor": [
          0.95040749170000005,
          0.55273183770000001,
          0.13455680510000001,
          1
        ],
        "metallicFactor": 0.59926629220000005,
        "roughnessFactor": 0.49234805320000002
      }
    },
    {
      "doubleSided": true,
      "emissiveFactor": [
        0,
        0,
        0
      ],
      "name": "wood",
      "pbrMetallicRoughness": {
        "baseColorFactor": [
          0.1410743112,
          0.0279300699,
          0.0050935195999999997,
          1
        ],
        "metallicFactor": 0,
        "roughnessFactor": 0.59999999999999998
      }
    }
  ],
  "meshes": [
    {
      "name": "polySurface3_metal_0",
      "primitives": [
        {
          "attributes": {
            "NORMAL": 1,
            "POSITION": 0,
            "TANGENT": 2
          },
          "indices": 3,
          "material": 0,
          "mode": 4
        }
      ]
    },
    {
      "name": "polySurface4_metal_0",
      "primitives": [
        {
          "attributes": {
            "NORMAL": 5,
            "POSITION": 4,
            "TANGENT": 6
          },
          "indices": 7,
          "material": 0,
          "mode": 4
        }
      ]
    },
    {
      "name": "polySurface5_wood_0",
      "primitives": [
        {
          "attributes": {
            "NORMAL": 9,
            "POSITION": 8,
            "TANGENT": 10
          },
          "indices": 11,
          "material": 1,
          "mode": 4
        }
      ]
    },
    {
      "name": "polySurface6_metal_0",
      "primitives": [
        {
          "attributes": {
            "NORMAL": 13,
            "POSITION": 12,
            "TANGENT": 14
          },
          "indices": 15,
          "material": 0,
          "mode": 4
        }
      ]
    }
  ],
  "nodes": [
    {
      "children": [
        1
      ],
      "name": "RootNode (gltf orientation matrix)",
      "rotation": [
        -0.70710678118654746,
        -0,
        -0,
        0.70710678118654757
      ]
    },
    {
      "children": [
        2
      ],
      "name": "RootNode (model correction matrix)"
    },
    {
      "children": [
        3
      ],
      "matrix": [
        1,
        0,
        0,
        0,
        0,
        0,
        1,
        0,
        0,
        -1,
        0,
        0,
        0,
        0,
        0,
        1
      ],
      "name": "894b581a43644fbfa84999610b09456a.fbx"
    },
    {
      "children": [
        4,
        9
      ],
      "name": "RootNode"
    },
    {
      "children": [
        5,
        7
      ],
      "matrix": [
        1,
        0,
        0,
        0,
        0,
        1,
        0,
        0,
        0,
        0,
        1,
        0,
        0,
        -2.6875450611114502,
        0,
        1
      ],
      "name": "pCylinder7"
    },
    {
      "children": [
        6
      ],
      "name": "polySurface3"
    },
    {
      "mesh": 0,
      "name": "polySurface3_metal_0"
    },
    {
      "children": [
        8
      ],
      "name": "polySurface4"
    },
    {
      "mesh": 1,
      "name": "polySurface4_metal_0"
    },
    {
      "children": [
        10,
        12
      ],
      "name": "group1"
    },
    {
      "children": [
        11
      ],
      "matrix": [
        1,
        0,
        0,
        0,
        0,
        1,
        0,
        0,
        0,
        0,
        1,
        0,
        0,
        -2.6875450611114502,
        0,
        1
      ],
      "name": "polySurface5"
    },
    {
      "mesh": 2,
      "name": "polySurface5_wood_0"
    },
    {
      "children": [
        13
      ],
      "name": "polySurface6"
    },
    {
      "mesh": 3,
      "name": "polySurface6_metal_0"
    }
  ],
  "scene": 0,
  "scenes": [
    {
      "name": "OSG_Scene",
      "nodes": [
        0
      ]
    }
  ]
}

