{
  "accessors": [
    {
      "bufferView": 2,
      "componentType": 5126,
      "count": 468,
      "max": [
        1.3883500099182129,
        1.019320011138916,
        1.6160299777984619
      ],
      "min": [
        -0.96502000093460083,
        -1.019320011138916,
        -2.2456099987030029
      ],
      "type": "VEC3"
    },
    {
      "bufferView": 2,
      "byteOffset": 5616,
      "componentType": 5126,
      "count": 468,
      "max": [
        1,
        0.99999338388442993,
        0.99999803304672241
      ],
      "min": [
        -1,
        -0.99999338388442993,
        -0.99961525201797485
      ],
      "type": "VEC3"
    },
    {
      "bufferView": 3,
      "componentType": 5126,
      "count": 468,
      "max": [
        0.99999803304672241,
        0.99624192714691162,
        0.99986028671264648,
        1
      ],
      "min": [
        -0.99993640184402466,
        -0.99624192714691162,
        -1,
        -1
      ],
      "type": "VEC4"
    },
    {
      "bufferView": 1,
      "componentType": 5126,
      "count": 468,
      "max": [
        0.99984997510910034,
        0.92985999584197998
      ],
      "min": [
        0.0098700001835823059,
        0.0044999998062849045
      ],
      "type": "VEC2"
    },
    {
      "bufferView": 0,
      "componentType": 5125,
      "count": 2424,
      "max": [
        467
      ],
      "min": [
        0
      ],
      "type": "SCALAR"
    },
    {
      "bufferView": 2,
      "byteOffset": 11232,
      "componentType": 5126,
      "count": 468,
      "max": [
        1.3883500099182129,
        1.019320011138916,
        1.6160299777984619
      ],
      "min": [
        -0.96502000093460083,
        -1.019320011138916,
        -2.2456099987030029
      ],
      "type": "VEC3"
    },
    {
      "bufferView": 2,
      "byteOffset": 16848,
      "componentType": 5126,
      "count": 468,
      "max": [
        1,
        0.99999338388442993,
        0.99999803304672241
      ],
      "min": [
        -1,
        -0.99999338388442993,
        -0.99961525201797485
      ],
      "type": "VEC3"
    },
    {
      "bufferView": 3,
      "byteOffset": 7488,
      "componentType": 5126,
      "count": 468,
      "max": [
        0.99999803304672241,
        0.99624192714691162,
        0.99986028671264648,
        1
      ],
      "min": [
        -0.99993640184402466,
        -0.99624192714691162,
        -1,
        -1
      ],
      "type": "VEC4"
    },
    {
      "bufferView": 1,
      "byteOffset": 3744,
      "componentType": 5126,
      "count": 468,
      "max": [
        0.99984997510910034,
        0.92985999584197998
      ],
      "min": [
        0.0098700001835823059,
        0.0044999998062849045
      ],
      "type": "VEC2"
    },
    {
      "bufferView": 0,
      "byteOffset": 9696,
      "componentType": 5125,
      "count": 2424,
      "max": [
        467
      ],
      "min": [
        0
      ],
      "type": "SCALAR"
    },
    {
      "bufferView": 2,
      "byteOffset": 22464,
      "componentType": 5126,
      "count": 468,
      "max": [
        1.3883500099182129,
        1.019320011138916,
        1.6160299777984619
      ],
      "min": [
        -0.96502000093460083,
        -1.019320011138916,
        -2.2456099987030029
      ],
      "type": "VEC3"
    },
    {
      "bufferView": 2,
      "byteOffset": 28080,
      "componentType": 5126,
      "count": 468,
      "max": [
        1,
        0.99999338388442993,
        0.99999803304672241
      ],
      "min": [
        -1,
        -0.99999338388442993,
        -0.99961525201797485
      ],
      "type": "VEC3"
    },
    {
      "bufferView": 3,
      "byteOffset": 14976,
      "componentType": 5126,
      "count": 468,
      "max": [
        0.99999803304672241,
        0.99624192714691162,
        0.99986028671264648,
        1
      ],
      "min": [
        -0.99993640184402466,
        -0.99624192714691162,
        -1,
        -1
      ],
      "type": "VEC4"
    },
    {
      "bufferView": 1,
      "byteOffset": 7488,
      "componentType": 5126,
      "count": 468,
      "max": [
        0.99984997510910034,
        0.92985999584197998
      ],
      "min": [
        0.0098700001835823059,
        0.0044999998062849045
      ],
      "type": "VEC2"
    },
    {
      "bufferView": 0,
      "byteOffset": 19392,
      "componentType": 5125,
      "count": 2424,
      "max": [
        467
      ],
      "min": [
        0
      ],
      "type": "SCALAR"
    },
    {
      "bufferView": 4,
      "componentType": 5126,
      "count": 13,
      "max": [
        1,
        0.99998998641967773,
        0.99980002641677856,
        0,
        0.85298997163772583,
        1,
        0.99989998340606689,
        0,
        0.99984997510910034,
        0.99989998340606689,
        1,
        0,
        2.0132200717926025,
        2.3952400684356689,
        3.8578000068664551,
        1
      ],
      "min": [
        -1,
        0,
        -0.040970001369714737,
        0,
        -0.99931001663208008,
        -0.98119997978210449,
        -0.99818998575210571,
        0,
        -0.5217900276184082,
        -0.99911999702453613,
        -0.98119997978210449,
        0,
        -4.2235798835754395,
        -4.7269701957702637,
        -4.1385998725891113,
        1
      ],
      "type": "MAT4"
    }
  ],
  "asset": {
    "extras": {
      "author": "Offy (https://sketchfab.com/axe163)",
      "license": "CC-BY-4.0 (http://creativecommons.org/licenses/by/4.0/)",
      "source": "https://sketchfab.com/models/c2f75dd26f83451994703086e0b19c42",
      "title": "We Bare Bears"
    },
    "generator": "Sketchfab-3.18.2",
    "version": "2.0"
  },
  "bufferViews": [
    {
      "buffer": 0,
      "byteLength": 29088,
      "byteOffset": 0,
      "name": "floatBufferViews",
      "target": 34963
    },
    {
      "buffer": 0,
      "byteLength": 11232,
      "byteOffset": 29088,
      "byteStride": 8,
      "name": "floatBufferViews",
      "target": 34962
    },
    {
      "buffer": 0,
      "byteLength": 33696,
      "byteOffset": 40320,
      "byteStride": 12,
      "name": "floatBufferViews",
      "target": 34962
    },
    {
      "buffer": 0,
      "byteLength": 22464,
      "byteOffset": 74016,
      "byteStride": 16,
      "name": "floatBufferViews",
      "target": 34962
    },
    {
      "buffer": 0,
      "byteLength": 832,
      "byteOffset": 96480,
      "byteStride": 64,
      "name": "floatBufferViews"
    }
  ],
  "buffers": [
    {
      "byteLength": 97312,
      "uri": "scene.bin"
    }
  ],
  "images": [
    {
      "uri": "textures/Material.004_baseColor.png"
    },
    {
      "uri": "textures/Material.003_baseColor.png"
    },
    {
      "uri": "textures/Material.005_baseColor.png"
    }
  ],
  "materials": [
    {
      "doubleSided": true,
      "emissiveFactor": [
        0,
        0,
        0
      ],
      "name": "Material.003",
      "pbrMetallicRoughness": {
        "baseColorFactor": [
          1,
          1,
          1,
          1
        ],
        "baseColorTexture": {
          "index": 1,
          "texCoord": 0
        },
        "metallicFactor": 0,
        "roughnessFactor": 0.59999999999999998
      }
    },
    {
      "doubleSided": true,
      "emissiveFactor": [
        0,
        0,
        0
      ],
      "name": "Material.004",
      "pbrMetallicRoughness": {
        "baseColorFactor": [
          1,
          1,
          1,
          1
        ],
        "baseColorTexture": {
          "index": 0,
          "texCoord": 0
        },
        "metallicFactor": 0,
        "roughnessFactor": 0.59999999999999998
      }
    },
    {
      "doubleSided": true,
      "emissiveFactor": [
        0,
        0,
        0
      ],
      "name": "Material.005",
      "pbrMetallicRoughness": {
        "baseColorFactor": [
          1,
          1,
          1,
          1
        ],
        "baseColorTexture": {
          "index": 2,
          "texCoord": 0
        },
        "metallicFactor": 0,
        "roughnessFactor": 0.59999999999999998
      }
    }
  ],
  "meshes": [
    {
      "name": "Circle.003",
      "primitives": [
        {
          "attributes": {
            "NORMAL": 1,
            "POSITION": 0,
            "TANGENT": 2,
            "TEXCOORD_0": 3
          },
          "indices": 4,
          "material": 2,
          "mode": 4
        }
      ]
    },
    {
      "name": "Circle.002",
      "primitives": [
        {
          "attributes": {
            "NORMAL": 6,
            "POSITION": 5,
            "TANGENT": 7,
            "TEXCOORD_0": 8
          },
          "indices": 9,
          "material": 1,
          "mode": 4
        }
      ]
    },
    {
      "name": "Circle",
      "primitives": [
        {
          "attributes": {
            "NORMAL": 11,
            "POSITION": 10,
            "TANGENT": 12,
            "TEXCOORD_0": 13
          },
          "indices": 14,
          "material": 0,
          "mode": 4
        }
      ]
    }
  ],
  "nodes": [
    {
      "children": [
        1
      ],
      "name": "RootNode (gltf orientation matrix)",
      "rotation": [
        -0.70710678118654746,
        -0,
        -0,
        0.70710678118654757
      ]
    },
    {
      "children": [
        2
      ],
      "name": "RootNode (model correction matrix)"
    },
    {
      "children": [
        3,
        5,
        7,
        21
      ],
      "name": "Root"
    },
    {
      "children": [
        4
      ],
      "matrix": [
        0,
        0,
        -2.6116799999999998,
        0,
        -2.6116799999999998,
        0,
        -0,
        0,
        0,
        2.6116799999999998,
        0,
        0,
        0,
        0,
        1.0738199999999998,
        1
      ],
      "name": "Circle.003"
    },
    {
      "mesh": 0,
      "name": "Circle.003"
    },
    {
      "children": [
        6
      ],
      "matrix": [
        0,
        0,
        -2.6808200000000002,
        0,
        -2.6808200000000002,
        0,
        -0,
        0,
        0,
        2.6808200000000002,
        0,
        0,
        0,
        -0.044250000000000012,
        -4.6056499999999998,
        1
      ],
      "name": "Circle.002"
    },
    {
      "mesh": 1,
      "name": "Circle.002"
    },
    {
      "children": [
        8
      ],
      "matrix": [
        2.09138,
        0,
        0,
        0,
        0,
        2.09138,
        0,
        0,
        0,
        0,
        2.09138,
        0,
        -0,
        -0.54618,
        -4.4350000000000005,
        1
      ],
      "name": "Armature"
    },
    {
      "children": [
        9,
        13,
        18
      ],
      "name": "Armature_rootJoint"
    },
    {
      "children": [
        10
      ],
      "name": "Bone",
      "rotation": [
        -0.061614427715539932,
        -0.68377208709716797,
        0.72523051500320435,
        -0.051962308585643768
      ],
      "scale": [
        1.0000039339065552,
        0.99999803304672241,
        1.0000013113021851
      ],
      "translation": [
        0.44633001089096069,
        0.30204001069068909,
        2.484839916229248
      ]
    },
    {
      "children": [
        11
      ],
      "name": "Bone.001",
      "rotation": [
        -0.083556681871414185,
        -0.70692324638366699,
        -0.016214629635214806,
        0.70215028524398804
      ],
      "scale": [
        0.99999046325683594,
        1.0000025033950806,
        1.0000011920928955
      ],
      "translation": [
        0,
        2.3140299320220947,
        0
      ]
    },
    {
      "children": [
        12
      ],
      "name": "Bone.002",
      "rotation": [
        0.36327248811721802,
        0.59871870279312134,
        -0.37421783804893494,
        0.60788977146148682
      ],
      "scale": [
        1.0000054836273193,
        1.0000001192092896,
        0.99999356269836426
      ],
      "translation": [
        0,
        2.3007500171661377,
        0
      ]
    },
    {
      "name": "Bone.003",
      "rotation": [
        -5.3312837735575158e-06,
        0.98752391338348389,
        0.15746909379959106,
        -2.7944208341068588e-05
      ],
      "scale": [
        0.99999767541885376,
        1.0000032186508179,
        1.0000054836273193
      ],
      "translation": [
        0,
        0.54405999183654785,
        0
      ]
    },
    {
      "children": [
        14
      ],
      "name": "Bone.004",
      "rotation": [
        0,
        0.68473720550537109,
        0.72879010438919067,
        0
      ],
      "scale": [
        1,
        1.0000007152557373,
        1.0000007152557373
      ],
      "translation": [
        -0.0023399998899549246,
        0.31556999683380127,
        2.4252500534057617
      ]
    },
    {
      "children": [
        15
      ],
      "name": "Bone.005",
      "rotation": [
        0.023926731199026108,
        0,
        0,
        0.9997137188911438
      ],
      "scale": [
        1,
        1.0000050067901611,
        1.0000050067901611
      ],
      "translation": [
        0,
        0.81224000453948975,
        0
      ]
    },
    {
      "children": [
        16
      ],
      "name": "Bone.006",
      "rotation": [
        0.014211378991603851,
        0,
        0,
        0.99989902973175049
      ],
      "scale": [
        1,
        1.0000039339065552,
        1.0000039339065552
      ],
      "translation": [
        0,
        0.60193002223968506,
        0
      ]
    },
    {
      "children": [
        17
      ],
      "name": "Bone.007",
      "rotation": [
        -0.022660886868834496,
        0,
        0,
        0.99974322319030762
      ],
      "scale": [
        1,
        0.99999701976776123,
        0.99999701976776123
      ],
      "translation": [
        0,
        0.6876099705696106,
        0
      ]
    },
    {
      "name": "Bone.008",
      "rotation": [
        0.0070251822471618652,
        0,
        0,
        0.99997532367706299
      ],
      "scale": [
        1,
        0.99999868869781494,
        0.99999868869781494
      ],
      "translation": [
        0,
        0.20695999264717102,
        0
      ]
    },
    {
      "children": [
        19
      ],
      "name": "Bone.009",
      "rotation": [
        0.50453311204910278,
        0.50408303737640381,
        0.49694031476974487,
        -0.49436521530151367
      ],
      "scale": [
        1.0000014305114746,
        0.99999475479125977,
        1.000007152557373
      ],
      "translation": [
        0.88583999872207642,
        0.26594001054763794,
        4.2214698791503906
      ]
    },
    {
      "children": [
        20
      ],
      "name": "Bone.010",
      "rotation": [
        -0.0021020646672695875,
        0.60444194078445435,
        0.0049211685545742512,
        0.79663121700286865
      ],
      "scale": [
        0.99999427795410156,
        0.99999850988388062,
        0.99999487400054932
      ],
      "translation": [
        0,
        1.1050299406051636,
        0
      ]
    },
    {
      "name": "Bone.011",
      "rotation": [
        -0.0018279175274074078,
        0.99146229028701782,
        -0.017186926677823067,
        0.12924328446388245
      ],
      "scale": [
        1.0000066757202148,
        0.99999541044235229,
        0.99999827146530151
      ],
      "translation": [
        0,
        1.1944700479507446,
        0
      ]
    },
    {
      "children": [
        22
      ],
      "matrix": [
        0,
        0,
        -2.6526699999999996,
        0,
        -2.6526699999999996,
        0,
        -0,
        0,
        0,
        2.6526699999999996,
        0,
        0,
        0,
        0,
        6.6770699999999996,
        1
      ],
      "name": "Circle"
    },
    {
      "mesh": 2,
      "name": "Circle"
    }
  ],
  "samplers": [
    {
      "magFilter": 9729,
      "minFilter": 9987,
      "wrapS": 10497,
      "wrapT": 10497
    }
  ],
  "scene": 0,
  "scenes": [
    {
      "name": "OSG_Scene",
      "nodes": [
        0
      ]
    }
  ],
  "skins": [
    {
      "inverseBindMatrices": 15,
      "joints": [
        8,
        9,
        10,
        11,
        12,
        13,
        14,
        15,
        16,
        17,
        18,
        19,
        20
      ],
      "skeleton": 8
    }
  ],
  "textures": [
    {
      "sampler": 0,
      "source": 0
    },
    {
      "sampler": 0,
      "source": 1
    },
    {
      "sampler": 0,
      "source": 2
    }
  ]
}

